<?xml version="1.0" encoding="UTF-8"?>
<svg id="Layer_1" data-name="Layer 1" xmlns="http://www.w3.org/2000/svg" viewBox="0 0 99.45 109.65">
  <defs>
    <style>
      .cls-1 {
        fill: #fff;
      }
    </style>
  </defs>
  <path class="cls-1" d="M73.94,67.1c-3.17,3.16-8.33,2.33-12.13,3.67-3.26,1.14-5.84,4.69-9.31,5.8-5.93,1.9-8.54-2.2-12.88-4.79-4.77-2.85-11.18-.77-14.83-5.69-2.48-3.34-1.66-7.9-3.08-11.5-1.26-3.21-4.76-5.74-5.81-9.31-2.04-6.95,4.8-9.92,6.21-15.55,1.08-4.31.4-9.5,4.86-12.15,2.99-1.77,6.35-1.47,9.59-2.29,5.58-1.41,8.27-7.95,15.11-6.33,4.37,1.04,6.93,5.24,11.22,6.33,3.65.92,8.06.45,11,3.3,2.84,2.75,2.56,7.6,3.44,11.13,1.41,5.63,8.26,8.6,6.21,15.55-1.05,3.57-4.55,6.1-5.81,9.31-1.52,3.88-.55,9.23-3.82,12.51ZM71.25,64.41c2.09-2.09,1.8-8.61,3.2-11.79,1.24-2.82,5.7-6.72,5.78-9.61.08-3.05-4.83-7.39-6.05-10.64-1.11-2.99-.92-8.79-2.83-10.93-1.79-2.01-8.22-1.93-11.07-2.97-3.28-1.19-7.55-6.13-10.64-6.05-3.02.08-7.18,4.86-10.42,6.05-2.84,1.04-9.27.96-11.07,2.97-1.92,2.15-1.72,7.94-2.83,10.93-1.2,3.23-5.97,7.44-6.05,10.42-.08,3.05,4.5,6.92,5.78,9.83,1.38,3.15,1.12,9.45,2.99,11.59,1.86,2.13,8.87,2.03,11.99,3.39s6.21,5.49,9.58,5.55c3.62.07,6.63-4.12,9.86-5.55s9.82-1.23,11.79-3.2Z"/>
  <path class="cls-1" d="M67.02,94.73c.61.11.43-.03.6-.34,1.02-1.87,3.68-8.89,5.09-9.76.34-.21.74-.35,1.14-.33l9.64,1.25-8.79-15.38c-.69-2.06,1.79-3.57,3.25-1.89l10.79,18.63c.56,1.7.01,2.98-1.87,2.98l-12.01-1.53-5.82,11.48c-.99,1.31-2.32,1.55-3.32.11l-11.44-20.96c-.98-2.42,1.98-3.79,3.42-1.8l9.33,17.53Z"/>
  <path class="cls-1" d="M15.73,85.28l12.68-.67c1.34.6,3.36,7.6,4.26,9.23.17.31-.02.46.6.34l7.98-15.92c1.61-1.95,4.2-.24,3.15,2.07-3.53,5.71-6.04,13.72-9.72,19.16-1.01,1.49-2.26,2.1-3.53.45l-4.89-11.59-13.92.93c-2.87-.98-1.76-2.61-.8-4.56,2.8-5.71,6.44-11.23,9.19-16.99,1.23-1.49,3.28-.88,3.55.98-2.37,5.7-5.94,10.93-8.56,16.56Z"/>
  <path class="cls-1" d="M47.26,19.77c19.03-1.71,32.21,18.31,22.51,34.92-8.9,15.24-31.39,15.14-40.14-.18-8.25-14.44,1.02-33.26,17.63-34.75ZM47.25,23.54c-8.72.98-16.26,8.88-16.94,17.61-1.46,18.68,21.84,28.7,34.15,14.44,11.68-13.53.44-34.05-17.21-32.05Z"/>
  <path class="cls-1" d="M59.66,34.3c1.91-.35,2.91,2.11,1.54,3.45l-12.25,12.04-2.06-.13c-.99-1.59-6.98-6.25-7.36-7.5-.53-1.77.96-2.93,2.66-2.39,1.27.41,5.3,5.66,6.02,5.53,2.1-1.37,9.79-10.71,11.44-11.01Z"/>
</svg>