<?xml version="1.0" encoding="UTF-8"?>
<svg id="Layer_1" data-name="Layer 1" xmlns="http://www.w3.org/2000/svg" viewBox="0 0 110.06 109.65">
  <defs>
    <style>
      .cls-1 {
        fill: #fff;
      }
    </style>
  </defs>
  <path class="cls-1" d="M46.7,46.06L12.16,30.34c-2.77-3.1,5.79-11.5,9.56-10.08l45.83,3.65c1.89-.25,13.06-13.31,16.01-15.48,9.52-7,22.03,1,20.23,12.51-1.23,7.86-13.31,14.72-17.39,21.27l3.43,47.86c-.16,2.23-8.48,11.8-10.87,6.46l-15.52-33.46-15.46,13.41.67,19.21c-.25.83-7.63,8-8.43,8.11-1.76.26-2.61-.88-3.43-2.23-2.49-4.14-6.66-16.89-9.42-19.45-3.36-3.12-15.12-6.6-19.81-9.57-5.07-3.21,4.34-8.74,6.5-11.45l19.21.66,12.9-14.42.51-1.29ZM81.76,90.38c2.41-.13,2.14-2.59,2.08-4.4l-3.52-45.22c.13-.96.61-1.69,1.16-2.46,3.64-5.07,12.48-10.66,15.65-15.79,4.16-6.72-3.07-13.88-9.67-10.18-4.32,2.43-10.88,12-15.5,15.43-2.49,1.85-4.98,1.37-7.99,1.27-12.52-.39-25.63-2.62-38.15-3.08-1.77-.07-9.22-.45-5.25,2.16,8.59,5.66,22.63,8.9,31.47,14.4,4.39,2.73.75,5.45-1.46,8.18-4.61,5.67-10.22,11.44-15.36,16.63l-18.65-.65c-.88-.02-3.37,2.51-2.85,3.08l17.8,8.24,9.26,18.05,2.32-2.84c-.14-5.17-.44-10.27-.51-15.45-.02-1.35-1.09-2.69.06-4.07,6.16-4.9,11.59-10.88,17.74-15.76,3.83-3.04,4.88-4.05,7.38.83,5.2,10.15,9.3,21.22,14,31.62Z"/>
</svg>