<?xml version="1.0" encoding="UTF-8"?>
<svg id="Layer_1" data-name="Layer 1" xmlns="http://www.w3.org/2000/svg" viewBox="0 0 110.06 109.65">
  <defs>
    <style>
      .cls-1 {
        fill: #fff;
      }
    </style>
  </defs>
  <path class="cls-1" d="M37.33,94.84c.08,2.05,3,3.37,1.38,5.43-3.36.97-12.36,7.64-15.27,7.23-.41-.06-.78-.19-1.07-.49L2.02,75.74c-.25-.96-.3-1.64.39-2.41.5-.56,6.51-3.72,7.76-4.38,1-.53,6.12-3.39,6.58-3.35,1.91.17,3.26,4.22,4.63,5.45,13.13-14.33,32.79-8.46,50.04-9.56,2.22.26,4.07,1.89,4.92,3.93l.67.09,21.92-12.02c7.57-2.48,12.56,6.77,6.19,11.75-17.92,9.6-33.87,28.66-56.19,23.74l-11.61,5.86ZM34.81,92.3c4.86-1.8,10.09-7.19,15.42-7.12,7.59.1,11.91,1.83,19.49-1.72,11.02-5.15,22.16-15.23,33.12-21.01,3.13-2.9,1.15-6.77-3.26-5.28-2.49.84-20.27,10.66-22.43,12.34-.84.65-1.01,2.54-2.12,3.58-.9.83-3.38,1.8-4.61,1.97-6.48.91-13.66.47-20.2,1.61-4.58-1.84-2.22-3.58,1.58-4.03,5.39-.63,11.25-.5,16.62-1.08,4.67-.51,7.33-3.94,2.43-6.46-16.42.94-35.37-4.7-47.61,9.25l11.56,17.96ZM16.54,70.07c-.41-.29-6.9,3.35-7.88,3.94-.62.38-2.34.99-2.14,1.77l18.33,27.61,9.94-5.26-18.25-28.05Z"/>
  <path class="cls-1" d="M52.9,2.4c38.03-4.62,41.46,53.09,4.91,54.49C23,58.22,19.25,6.48,52.9,2.4ZM53.91,5.93c-31.7,3.49-25.19,52.67,7.32,46.78,28.63-5.18,22.86-50.1-7.32-46.78Z"/>
  <path class="cls-1" d="M63.51,21.36c-1.57,1.39-5.06-1.31-5.43-.89-.85,5.99,1.09,4.27,4.4,6.47,3.24,2.16,3.8,6.95.84,9.64-1.27,1.15-4.14,1.63-4.49,2.09-.98,1.29.41,3.96-2.96,2.98l-1.31-3.25c-2.37-.46-8.37-1.72-6.75-5.15,1.55-3.29,4.96,1.23,7.22.87l-.06-5c-6.01-.57-9.67-7.7-4.24-11.7,1.54-1.13,2.9-.92,3.97-1.5.52-.28,0-2.12,2.13-2.03,1.25.05,1.27,1.66,2.27,2.25,1.51.9,5.1.68,5.03,3.51-.01.44-.3,1.42-.62,1.7ZM55.03,24.01l-.25-4.04c-2.5.92-2.43,3.62.25,4.04ZM58.07,34.12c3.18.23,3.05-3.1.75-4.04-1.4-.57-.53,3.49-.75,4.04Z"/>
</svg>