<?xml version="1.0" encoding="UTF-8"?>
<svg id="Layer_1" data-name="Layer 1" xmlns="http://www.w3.org/2000/svg" viewBox="0 0 145.1 109.65">
  <defs>
    <style>
      .cls-1 {
        fill: #fff;
      }
    </style>
  </defs>
  <path class="cls-1" d="M109.45,60.66c3.63,4.64-.25,11.94-6.17,10.72-1.01-.21-1.62-1.16-2.61-1.27,3.84,6.32-3.25,12.84-9.11,8.09,2.13,5.75-4.53,11.37-9.09,6.53-.2-.66.7-1.66.89-2.4,1.5-5.69-3.38-10.48-9.02-9.87.03-6.64-8.85-9.72-13.33-5.07-3-5.95-9.94-6.42-13.5-.68-3-5.2-9.63-5.38-12.66-.15l-22.61-6.08c-3.5-13.01-1.11-27.67,6.4-38.82l24.8,6.92c6.63-3.24,12.73-8.1,19.19-11.52,2.4-1.27,4.23-1.08,5.96,1.23l-7.68,5.48-4.38,18.56c-.2,6.52,12.34,9.94,16.43,6.65.68-.55,1-1.31,1.27-2.11,1.17-3.51,1.71-12.48,4.31-14.58.42-.34,1.34-.95,1.88-.85l34.07,19.56c3.42,4.2.12,9.76-5.08,9.63Z"/>
  <path class="cls-1" d="M126.62,21.56c5.89,10.27,8.89,22.28,7.42,34.17-.12.96-.79,5.11-1.39,5.38l-20.16,5.29.03-4.35c5.11-.92,7.96-9.05,4.15-12.82l-36.12-20.9c-.34-.03-5.3,3.55-5.53,3.9-1.25,1.88-2.23,9.46-3.19,12.24-1.15,3.32-4.02,3.14-7.14,2.41-5.5-1.29-5.1-4.65-4.4-9.22.65-4.24,2.04-8.59,3.12-12.74l14.31-9.99,7.19-.07,21.37,11.38,20.34-4.68Z"/>
  <path class="cls-1" d="M63.81,87.89c-2.71,1.66-9.23-1.05-9-4.44l8.27-15.02c2.62-1.86,7.46-.13,8.76,2.68.72,1.56.43,2.03-.23,3.48-2.01,4.39-5.66,8.86-7.79,13.29Z"/>
  <path class="cls-1" d="M73.44,75.93c2.24-2.32,9.34.77,8.67,4.43l-7.76,13.52c-2.14,2.44-8.86-.44-8.67-3.66l7.76-14.3Z"/>
  <path class="cls-1" d="M53.69,65.12c2.52-.24,7.09,2.73,6.09,5.75l-5.99,10.88c-2.33,2.51-9.65-.79-9.06-4.31.42-2.49,6.3-8.71,7.4-11.52.34-.47,1-.76,1.56-.81Z"/>
  <path class="cls-1" d="M39.51,65.11c3.11-.69,8.22,2.63,6.99,6.32-.28.84-2.97,4.78-3.76,5.01-2.54.75-7.76-1.38-8.13-4.22-.18-1.33,3.65-6.83,4.9-7.11Z"/>
</svg>