<?xml version="1.0" encoding="UTF-8"?>
<svg id="Layer_1" xmlns="http://www.w3.org/2000/svg" version="1.1" viewBox="0 0 180.22 174.28">
  <!-- Generator: Adobe Illustrator 29.8.2, SVG Export Plug-In . SVG Version: 2.1.1 Build 3)  -->
  <defs>
    <style>
      .st0 {
        fill: #f08900;
      }
    </style>
  </defs>
  <path class="st0" d="M7.52,37.14c.52-5.59,7.02-12.58,12.74-12.58h19.84V8.26c0-.14,1.19-2.19,1.44-2.43.56-.52,2.12-1.19,2.9-1.29l65.8.03,2.77,1.42,18.61,18.49c14,1.97,38.55-6.76,41.08,13.77l-.02,92.27c-.06,5.94-6.73,13.39-12.74,13.39h-47.58l4.02,15.82c.79,1.05,7.06-.87,9.53,1.76,2.61,2.78,1.07,6.93-2.27,8.23H56.55c-3.34-1.3-4.87-5.46-2.27-8.23,2.47-2.63,8.75-.71,9.53-1.76l4.02-15.82H20.26c-.95,0-4.09-1.2-5.07-1.7-4.25-2.17-6.72-6.3-7.67-10.88V37.14ZM104.62,14.23h-54.84v100.65h80.65V40.04h-22.1c-.13,0-2.07-1.1-2.27-1.28-.25-.23-1.44-2.29-1.44-2.43V14.23ZM123.33,30.36l-9.03-9.03v9.03h9.03ZM40.1,34.23h-19.2c-.96,0-3.71,2.72-3.71,3.71v76.94h22.91V34.23ZM163.01,114.89V37.94c0-.14-1.19-2.2-1.44-2.43-.2-.18-2.14-1.28-2.27-1.28h-19.2v80.65h22.91ZM163.01,124.56H17.2v5.97c0,1.34,3.09,4.01,4.66,3.73l137.62-.17c1.16-.09,3.54-2.65,3.54-3.56v-5.97ZM106.56,160.05l-4.18-15.99h-24.56l-4.18,15.99h32.91Z"/>
  <path class="st0" d="M70.75,56.01c-1.78-1.16-4.02-1.99-5.64-3.4-5.57-4.83-3.55-14.62,2.72-17.91.64-.33,2.57-.8,2.77-1.1.68-1.01-.72-3.29,1.33-4.8,3.15-2.33,5.91,1.25,5.32,4.43,3.17.47,10.06,3.87,6.88,7.77-2.32,2.84-4.64-.25-6.92-.95v11.61c14.23,3.15,13.27,21.54.15,25.47.15,2.9-.87,6.86-4.58,5.57-2.42-.85-2.02-3.12-2.07-5.19-3.23-.46-12.26-3.02-9.45-7.76,2.25-3.79,6.54,1.39,9.49.94v-14.68ZM70.75,40.69c-.79-.07-1.44,1.03-1.74,1.64-1.13,2.29-1.12,5.32,1.74,6.1v-7.74ZM77.2,70.04c.56.14.64-.23.97-.48,4.04-3.09,4.14-9.22-.97-11.13v11.61Z"/>
  <path class="st0" d="M63.24,92.38l53.17-.08c5.78,1.01,5.79,8.68,0,9.69h-52.6c-5.5-.95-5.88-8.04-.56-9.61Z"/>
  <path class="st0" d="M98.73,53.66c1.99-.4,16.25-.4,18.24,0,5.12,1.04,4.92,8.77-.27,9.59-2.4.37-15.74.4-17.97-.05-4.97-1.01-4.99-8.52,0-9.53Z"/>
  <path class="st0" d="M98.73,73.02c1.99-.4,16.25-.4,18.24,0,5.12,1.04,4.92,8.77-.27,9.59-2.4.37-15.74.4-17.97-.05-4.97-1.01-4.99-8.52,0-9.53Z"/>
</svg>