<?xml version="1.0" encoding="UTF-8"?>
<svg id="Layer_1" xmlns="http://www.w3.org/2000/svg" version="1.1" viewBox="0 0 180.22 174.28">
  <!-- Generator: Adobe Illustrator 29.8.2, SVG Export Plug-In . SVG Version: 2.1.1 Build 3)  -->
  <defs>
    <style>
      .st0 {
        fill: #f08900;
      }
    </style>
  </defs>
  <path class="st0" d="M173.16,104.09c-.08-.76-.23-2.35-1.47-3.07l-.1-.04c-9.36-2.89-18.92-7.44-28.39-13.52l-.53-.33c-2.61-1.64-4.06-2.66-4.31-3l-.06-72.05c-.64-5.57-4.97-9.77-10.57-10.21l-111.26.1c-5.44.96-9.23,5.17-9.67,10.78v148.89c.53,5.6,4.61,9.93,9.97,10.52,13.95.06,27.91.03,41.87-.01,8.57-.02,17.14-.05,25.71-.05,17.77,0,32.12.11,45.15.35h.11s.1-.04.1-.04c28.31-12.88,46.19-40.97,43.46-68.29ZM133.08,80.63c-.36-.22-.71-.5-1.07-.78-1.19-.95-2.43-1.95-4.35-1-11.7,8.3-25.49,17.54-41.11,22.11l-.14.06c-1.11.74-1.29,2.59-1.4,3.7-.83,8.5.96,19.46,4.66,28.6,5.27,13.02,14.68,24.02,28.73,33.6H16.82c-.33-.1-1.74-.8-2-.99-1.69-1.16-2.61-2.89-2.82-5.27V13.94c.14-4.1,2.38-6.54,6.26-6.88h108.83c1.87.1,4.21,1.46,5.1,2.96.12.21.83,1.96.88,2.11v68.5ZM90.18,112.22c-.12-2.06-.11-6.37.18-6.87.33-.22,3.22-1.25,5.13-1.93,1.65-.59,3.07-1.1,3.61-1.33,10.57-4.54,20.17-10.91,29.89-17.6,2.13,1.27,4.21,2.69,6.23,4.07,1.63,1.12,3.32,2.27,5.04,3.34,10.45,6.54,19.27,10.8,27.69,13.39,1.69,24.87-13.41,48.93-38.56,61.44-22.89-10.61-37.9-31.48-39.2-54.51Z"/>
  <path class="st0" d="M120.05,48.68l.5-.07c0-.06,0-.13-.01-.19,0-.05-.02-.1-.05-.23-.01-.06-.03-.12-.05-.18-.02-.05-.04-.1-.09-.22-.02-.06-.05-.12-.08-.17-.03-.05-.05-.09-.13-.2-.03-.05-.07-.11-.11-.16-.04-.04-.08-.08-.16-.17-.05-.05-.1-.1-.15-.15-.05-.04-.1-.07-.2-.14-.06-.04-.12-.08-.18-.11-.05-.03-.11-.05-.24-.11-.06-.03-.13-.06-.2-.08-.06-.02-.12-.03-.27-.07-.07-.02-.14-.03-.22-.04-.07-.01-.15-.02-.31-.03-.06,0-.12,0-.28,0l-91.35.08h-.13l-.11.06c-.17.09-.32.19-.48.32-.13.1-.25.21-.42.39-.09.1-.17.2-.25.31l-.06.1c-.06.1-.12.2-.17.3-.02.04-.03.08-.05.14-.04.09-.07.19-.1.28,0,.04-.02.08-.03.15-.02.09-.04.19-.04.29,0,.04,0,.08,0,.13,0,.1,0,.2,0,.29,0,.04.01.08.03.16.01.09.03.18.05.27.01.04.03.08.06.17.03.08.05.15.09.24l.1.17c.04.07.07.13.12.2.03.04.06.07.13.16.05.06.1.12.16.18.03.03.07.07.17.14.06.05.11.1.17.14.04.03.09.06.22.14.06.04.11.07.18.11.05.02.1.04.15.06l.17-.47-.07.51c.06.03.12.05.19.07.06.02.11.03.17.04l.1-.49v.51c.08.02.15.03.22.04.06,0,.13.01.19.02l.03-.5.09.51c.07,0,.14.01.24.01l90.98-.15.41-.15c.09-.04.17-.09.25-.14.05-.03.09-.07.14-.1l-.31-.39.41.32c.06-.04.12-.09.16-.13.04-.04.08-.08.12-.12l-.37-.33.44.26s.1-.1.14-.15c.04-.05.07-.09.15-.22.04-.05.07-.1.1-.16.03-.05.05-.1.11-.24.03-.05.05-.11.07-.17.02-.05.03-.1.07-.24.02-.06.04-.12.05-.18.01-.05.02-.11.03-.24,0-.06.02-.12.02-.19,0-.05,0-.1,0-.16l-.5-.02ZM117.9,46.84h0s0,0,0,0ZM25.37,49.92h0ZM26.69,50.96h0s0,0,0,0ZM119.77,49.86h0s0,0,0,0h0ZM119.93,49.53h0ZM120.06,48.84h0Z"/>
  <path class="st0" d="M24.68,30.34c.02.07.04.13.09.29.02.06.04.11.06.16.03.07.07.13.15.28.03.05.05.1.08.14.05.07.11.13.22.26l.11.12c.07.07.15.12.29.23l.12.09c.11.07.23.12.37.19l.12.06c.18.07.37.13.57.17h.11s90.88,0,90.88,0h.12c.53-.04,1.26-.09,1.73-.53.63-.59.91-1.54.75-2.48-.16-.91-.71-1.62-1.49-1.95l-.09-.04-91.34-.24c-.07,0-.14,0-.21.01l.06.5-.2-.48c-.07,0-.15,0-.21.02-.08.01-.16.03-.24.05l.13.48-.23-.46c-.07.02-.14.03-.2.06-.07.02-.13.05-.2.08l.22.45-.32-.4c-.06.03-.13.06-.18.09-.06.04-.12.08-.25.17-.06.04-.12.08-.17.12-.05.04-.1.09-.21.21-.04.04-.09.09-.13.14-.04.05-.07.1-.11.15l.39.32h0s-.44-.24-.44-.24c-.04.05-.07.11-.1.16-.03.05-.05.11-.07.16l.46.19-.5-.09c-.03.06-.05.11-.07.17-.02.06-.03.12-.07.27-.02.06-.03.12-.04.18,0,.06-.01.12-.02.28,0,.06,0,.12,0,.18,0,.07.01.13.03.28,0,.06.01.12.03.18ZM25.59,28.45h0s0,0,0,0h0Z"/>
  <path class="st0" d="M118.96,65.56l-.09-.04-91.34-.24c-.07,0-.14,0-.21.01l.06.5-.19-.49c-.08,0-.15,0-.23.02-.07.01-.14.03-.2.05l.13.48-.27-.45c-.06.02-.13.03-.2.05-.07.02-.13.05-.19.08l.22.45-.32-.41c-.06.03-.12.05-.18.09-.06.03-.11.07-.24.17-.06.04-.12.08-.17.12-.05.04-.09.09-.14.13l.36.34-.44-.27s-.09.09-.13.14c-.04.05-.08.1-.16.23-.04.05-.07.11-.1.16-.03.05-.05.11-.07.16l.46.19-.5-.09c-.03.06-.05.11-.07.17-.02.06-.03.12-.07.27-.02.06-.03.12-.04.18,0,.06-.01.12-.02.28,0,.06,0,.12,0,.18,0,.07.01.13.02.2l.5-.03-.49.11c0,.06.01.12.03.18.02.07.04.13.09.29.02.05.03.11.06.16.03.07.07.13.15.28.03.05.05.1.08.14.05.07.1.13.22.26l.11.12c.07.07.15.12.29.23l.12.09c.11.07.24.13.38.2l.11.06c.17.07.37.13.57.17h.11s90.86,0,90.86,0h.14c.53-.04,1.26-.09,1.73-.53.63-.59.91-1.54.75-2.48-.16-.91-.71-1.62-1.5-1.95Z"/>
  <path class="st0" d="M106.1,85.61c-.4-.68-1.04-1.07-1.82-1.08H26.88c-.21.06-.4.12-.57.19-.04.01-.07.03-.11.06-.13.06-.27.12-.38.19l-.19.15c-.08.06-.16.11-.22.18l-.16.18c-.06.06-.12.13-.16.2l-.13.21c-.04.07-.08.14-.11.21l-.08.23c-.03.07-.05.14-.07.21-.01.05-.02.11-.04.25-.01.07-.02.14-.02.21,0,.05,0,.1,0,.25,0,.07,0,.14.01.21h0c0,.05.02.11.05.25.01.07.03.14.05.21.02.05.04.1.1.24.03.06.05.13.09.19.03.05.06.09.14.22.04.06.08.12.12.17.04.05.08.09.19.2.05.05.1.11.16.15.05.04.1.08.23.17.06.04.12.09.18.12.05.03.11.06.17.08l.2-.46-.09.51c.07.03.13.06.21.09.06.02.13.04.19.05l.11-.49v.51c.07.02.15.04.23.05.07.01.15.02.23.02l.03-.5.1.51c.07,0,.14.01.26.01l76.91-.1h.11c.28-.07,1.1-.53,1.32-.79.54-.67.72-1.7.45-2.63-.07-.23-.16-.44-.27-.63ZM25.12,87.01h0ZM25.14,87.38h0ZM25.14,87.39h0,0ZM25.37,88.09s0,0,0,0h0s0,0,0,0Z"/>
  <path class="st0" d="M24.67,125.71c.01.07.03.13.08.29.02.06.03.12.05.17.02.06.05.13.09.19l.45-.23-.4.32c.02.05.05.11.08.16.04.06.08.12.12.17l.4-.3-.34.39s.07.1.11.15c.05.06.11.11.24.22.04.04.09.09.14.12.07.05.14.1.22.14l.25-.43-.16.49s.09.06.15.09c.09.04.19.08.37.14l.16.05c.19.05.38.08.62.09h50s.09,0,.21-.01c.06,0,.12,0,.17-.02.06,0,.12-.02.24-.05.06-.01.12-.03.16-.05.06-.02.11-.04.23-.1.05-.02.09-.04.14-.07.05-.03.09-.05.21-.13.04-.03.09-.06.12-.09.05-.04.09-.08.18-.16.04-.03.07-.07.11-.1.04-.04.08-.09.15-.18.03-.04.07-.08.09-.12.03-.04.06-.09.13-.2.03-.04.05-.09.08-.13.02-.05.05-.09.1-.22l.06-.13c.02-.05.04-.1.07-.22.02-.05.03-.09.04-.14.01-.06.02-.11.05-.25,0-.05.02-.09.02-.14,0-.06,0-.11.01-.24,0-.05,0-.1,0-.14,0-.06,0-.12-.02-.25v-.14c-.02-.06-.04-.12-.07-.26l-.03-.12c-.02-.07-.05-.14-.1-.25l-.05-.11c-.04-.09-.1-.17-.16-.26l-.06-.09c-.08-.11-.18-.22-.28-.31-.45-.43-1.12-.48-1.67-.51h-.2c-.97-.1-1.94-.17-2.92-.22l-.98-.05c-.66-.03-1.32-.07-1.98-.09l-1.51-.04c-.49-.01-.99-.02-1.48-.03l-2.51-.02h-.45c-.79,0-1.59.01-2.38.02h-1.02c-1.14.03-2.27.06-3.41.09h-.39c-1.04.04-2.09.07-3.13.11l-11.64.39c-.73.02-1.46.03-2.19.05l-1.27.02c-.97.01-1.93.02-2.89.02h-.52c-1.38,0-2.75-.02-4.11-.05l-1.02-.03c-1.61-.05-2.92-.11-4.14-.19h-.15c-.07,0-.13,0-.19,0l.06.5-.18-.49c-.08,0-.15.01-.21.02-.09.01-.17.04-.33.08-.07.02-.14.04-.21.07-.07.03-.14.07-.28.14-.06.03-.13.07-.18.11-.06.04-.12.09-.23.19-.05.04-.11.09-.15.14-.05.06-.1.12-.19.24-.04.05-.08.1-.1.15-.04.06-.07.13-.13.27-.03.05-.05.11-.07.17-.02.06-.04.13-.07.27-.02.06-.03.12-.04.19,0,.07-.01.13-.02.28,0,.06,0,.13,0,.19,0,.07,0,.14.02.21l.5-.02h0l-.49.1c0,.06.01.12.02.18ZM77.32,127.44h0s0,0,0,0ZM77.43,127.43h0s0,0,0,0ZM79.22,126h0ZM79.38,125.38h0ZM79.4,125.05h0ZM79.37,124.73h0ZM79.3,124.44h0s0,0,0,0h0ZM25.24,124.47h0Z"/>
  <path class="st0" d="M77.27,103.48h-.03s-50.19.07-50.19.07h-.28l-.13.02c-.96.27-1.65.94-1.9,1.86-.21.75-.08,1.54.33,2.16.41.62,1.07,1.01,1.92,1.12h50.6c.7-.1,1.3-.42,1.73-.93.2-.24.35-.5.45-.79.26-.75.18-1.55-.23-2.21-.45-.72-1.26-1.19-2.27-1.3Z"/>
  <path class="st0" d="M77.27,141.66h-.06s-50.44.07-50.44.07l-.13.02c-.07.02-.13.04-.25.09-.38.14-.71.35-1,.63-.27.27-.47.61-.6.99-.26.75-.16,1.6.25,2.25.4.65,1.08,1.06,1.96,1.18h50.6c.27-.04.53-.12.8-.24.11-.05.22-.11.32-.17.24-.15.45-.33.61-.52.2-.23.35-.5.45-.79.26-.74.18-1.55-.23-2.2-.45-.72-1.26-1.19-2.27-1.3Z"/>
  <path class="st0" d="M130.58,161.51l.13-.05c.24-.09.49-.19.73-.3l.13-.07c.24-.12.48-.24.77-.41.24-.13.47-.28.78-.47.23-.15.46-.3.69-.45l.79-.53c.2-.14.4-.27.61-.4,2.54-1.63,4.97-3.42,7.23-5.32,2.31-1.93,4.49-4.02,6.47-6.19,7-7.66,11.8-16.68,13.87-26.1.24-1.09.64-3.21.94-5.3.05-.32.09-.63.13-.95.64-4.86.23-5.78.09-6.09-.24-.53-1.23-1.23-5.31-2.92-.72-.3-1.43-.59-2.07-.85-.97-.39-1.81-.74-2.23-.93-3.57-1.7-7.47-3.79-11.57-6.19-.87-.51-1.74-1.02-2.59-1.54-1-.6-2.1-1.36-3.14-2.09l-.87-.61c-.65-.46-1.3-.92-1.95-1.36-.41-.28-.81-.55-1.21-.8-.88-.57-1.64-1.01-2.32-1.35-.09-.04-.17-.09-.32-.17-.12-.06-.23-.12-.41-.21-.12-.06-.25-.11-.42-.15-.14-.04-.29-.07-.38-.06h-.17c-.16,0-.3.02-.44.06l-.14.06c-10.02,6.68-17.98,11.31-25.81,15-.78.37-1.82.75-2.93,1.15-.85.31-1.71.62-2.48.94-.24.1-.46.2-.67.3-.53.24-.91.44-1.2.63-.04.02-.07.05-.13.09-.48.34-.81.75-.99,1.23-.2.53-.23,1.11-.23,1.62.03,11.48,4.74,23.58,13.26,34.08.74.91,1.5,1.8,2.29,2.67l.17.19c2.07,2.28,4.29,4.39,6.6,6.28,2.28,1.87,9.06,6.9,11.52,7.68.18.06.35.1.53.12.05,0,.09.01.18.02.11.01.23.02.31.02h.16c.25,0,.51-.03.82-.09.26-.05.51-.13.77-.21ZM155.66,126.51c-2.8,7.65-7.59,14.64-14.25,20.77-3.63,3.34-7.75,6.36-12.25,8.98-.91-.51-1.87-1.09-2.99-1.8-8.81-5.58-15.9-12.92-20.51-21.22-2.15-3.87-3.76-7.91-4.77-12-.32-1.3-.91-3.83-1.23-6.19-.1-.72-.16-1.37-.18-1.92v-.2c-.03-.36-.07-1.04.13-1.21.35-.29,2.04-.92,3.27-1.38l1.23-.47c.37-.14.69-.28.92-.38,8.61-4.08,16.67-8.75,23.94-13.9,3.73,2.41,6.63,4.23,9.36,5.88,7.77,4.7,14.31,8,20.56,10.37-.06.52-.11,1.04-.18,1.56-.44,3.52-1.07,6.69-1.94,9.7-.35,1.21-.71,2.33-1.11,3.41ZM95.48,108.31h0Z"/>
  <path class="st0" d="M145.97,110.77l-.12.04-24.08,23.87-.25-.04c-1.98-2.59-4.45-4.74-6.85-6.82l-.18-.15c-.18-.15-.32-.37-.47-.61-.17-.26-.35-.53-.59-.74-1.4-1.19-3.41-1-4.28.3-.51.76-.56,1.75-.16,2.73l10.87,11.08c.53.48,1.18.75,1.84.75.41,0,.82-.1,1.2-.3l25.95-25.8c.69-.96.82-2.15.33-3.1-.57-1.11-1.85-1.62-3.21-1.21Z"/>
</svg>