<?xml version="1.0" encoding="UTF-8"?>
<svg id="Layer_1" xmlns="http://www.w3.org/2000/svg" version="1.1" viewBox="0 0 180.22 183.94">
  <!-- Generator: Adobe Illustrator 29.8.2, SVG Export Plug-In . SVG Version: 2.1.1 Build 3)  -->
  <defs>
    <style>
      .st0 {
        fill: #f08900;
      }
    </style>
  </defs>
  <path class="st0" d="M95.55,115.35c.14-.56.7-1.12,1.04-1.61l32.58-18.99c2.45-2.95.78-5.22-1.12-7.71-5.35-6.97-14.58-12.75-22.88-15.47-.5-.04-4.82,4.11-5.79,4.84-13.44,10.03-31.02,12.21-46.53,5.62-5.81-2.47-10.67-6.36-15.34-10.5-18.73,5.94-33.3,23.89-34.62,43.68-.87,12.95.6,26.97.13,40.01.27,1.07,2.17,2.77,3.2,2.97h98.94c-5.11-9.36-8.91-19.88-9.69-30.63-.19-2.63-.44-10.09.1-12.23Z"/>
  <path class="st0" d="M102.57,56.26C116.6,30.69,95.81.72,67.15,3.65c-25.08,2.56-39.28,30.78-27.02,52.76,13.61,24.41,48.98,24.37,62.44-.15Z"/>
  <path class="st0" d="M171.98,116.7c-7.84-4.9-17.8-10.87-26-14.98-3.7-1.86-3.73-2.37-7.64-.44-.83.41-3.92,2.14-7.16,4.03-.11.06-.22.11-.34.18-5.57,3.13-15.28,8.94-19.91,11.72-.88.4-1.76.91-2.52,1.52-.05.03-.08.05-.08.05h0c-1.26,1.04-2.2,2.35-2.24,3.94-.61,20.54,13.24,48.95,32.81,57.47,3.88,1.69,6.59-.31,9.83-2.41,15.61-10.13,27.5-30.23,28.7-48.86.47-7.36.56-8.46-5.45-12.21ZM162.36,125.75c-7.8,9.96-14.24,22.82-22.22,32.42-1.92,2.31-3.3,2.64-5.4.19-2.8-3.27-11.78-16.63-13.53-20.41-1.48-3.19,1.65-5.77,4.18-3.74l12.36,17.82,19.84-29.3c2.59-3.29,6.67-.67,4.77,3.01Z"/>
</svg>