<?xml version="1.0" encoding="UTF-8"?>
<svg id="Layer_1" xmlns="http://www.w3.org/2000/svg" version="1.1" viewBox="0 0 180.22 183.94">
  <!-- Generator: Adobe Illustrator 29.8.2, SVG Export Plug-In . SVG Version: 2.1.1 Build 3)  -->
  <defs>
    <style>
      .st0 {
        fill: #f08900;
      }
    </style>
  </defs>
  <path class="st0" d="M82.78,149.4c-.89,0-1.06,1.21-1.21,2.27,0,.05-.01.1-.02.15-22.25-6.91-40.01-23.03-48.78-44.28l-.29-.69c-.8-1.91-1.87-4.5-2.31-6.32.14-.03.32-.06.52-.09.98-.17,1.82-.31,1.97-.91l.03-.1-7.1-42.98-.48.06c-7.51.99-14.38,6.61-17.1,14-1.94,5.27-1.83,14.22.33,25.9,3.61,19.55,13.22,37.36,27.78,51.51,14.56,14.14,32.65,23.23,52.3,26.28,5.55.86,10.29,1.3,14.09,1.3.7,0,1.38-.01,2.03-.05,10.68-.51,19.51-8.28,21-18.47l.07-.49-42.82-7.08h-.01Z"/>
  <path class="st0" d="M137.01,18.49c-11.23-6.57-24.11-10.04-37.25-10.04-28.37,0-53.67,15.31-66.03,39.96-.05.1-.1.19-.16.29-.23.42-.5.89-.46,1.49l.02.37,5.96,1.51.18-.35c11.04-21.33,33.38-35.7,57.02-36.73v11.01h5.82c.18,0,.35-.09.5-.26.06-.07.35-.42.3-.74l-.12-10.04s.09,0,.13,0h.22c1.2,0,3.3.25,4.56.4l.15.02c30.42,3.65,55.17,28.39,58.83,58.83l.02.18c.15,1.21.45,3.71.4,4.78h-10.46l-.59.59v6.02h11.01c-1.02,23.98-15.06,45.79-36.73,57.02l-.35.18,1.45,5.75.32.25h.19c.98,0,6.54-3.38,6.59-3.42,22.26-13.75,35.36-37.66,35.04-63.97s-13.99-49.89-36.58-63.09Z"/>
  <path class="st0" d="M125.74,150.85c-.22-2.02-.46-4.12-1.59-5.85l-.12-.19-37.26-5.68-.18.25c-1.5,2.07-2.65,4.09-3.5,6.18l-.24.58,43.21,7.13-.1-.68c-.09-.57-.15-1.15-.22-1.74Z"/>
  <path class="st0" d="M36.34,98.89c.39,0,.82-.2,1.3-.43.09-.04.17-.08.24-.11,1.56-.66,2.94-1.6,4.27-2.52l.78-.53-5.68-37.27-.19-.12c-1.8-1.14-3.96-1.38-6.04-1.62-.52-.06-1.04-.12-1.55-.19l-.67-.1,6.76,42.31c.09.35.4.57.79.57Z"/>
  <path class="st0" d="M69.7,89.11c3.38-4.36,7.6-9.78,7.92-13.52.24-2.8-.48-5.21-2.1-6.97-1.65-1.8-4.16-2.83-6.89-2.83h0c-3.89,0-7.24,1.99-8.75,5.2-.12.25-1.23,3.18-1.09,3.85.03.15.18.62.85.62.18,0,.39-.04.59-.08.12-.02.23-.05.33-.05.12,0,.26.04.41.08.39.1.85.11,1.32.02.35-.07.74-.12,1.05.04l.45.24.23-.46c.21-.42.37-.84.53-1.24.34-.91.64-1.69,1.45-2.25.62-.43,1.52-.68,2.47-.68,1.26,0,2.79.46,3.28,1.74.7,1.81.29,3.79-1.29,6.23-1.76,2.71-3.9,5.39-5.96,7.99-1.78,2.24-3.63,4.55-5.22,6.88l-.09.13v4.57h18.65v-5.21h-11.34c.05-.07.1-.13.15-.2.77-1.14,1.88-2.57,3.06-4.09Z"/>
  <polygon class="st0" points="92.25 66.32 81.69 88.98 81.64 93.8 95.08 93.8 95.08 98.61 100.49 98.61 100.49 93.8 102.7 93.8 102.7 88.79 100.49 88.79 100.49 79.16 95.08 79.16 95.08 88.78 87.54 88.79 87.54 88.78 97.97 66.32 92.25 66.32"/>
  <path class="st0" d="M138.44,71.33l-8.02,27.28h5.48l.14-.27c.45-.86.75-1.88,1.05-2.86l.19-.64c2.01-6.51,4.5-14.62,6.47-22.24.05-.19.27-.67.42-.98.21-.45.26-.55.26-.69v-4.22l-.59-.59h-17.45v9.83h4.86l.15-.2c.62-.84.46-1.87.32-2.77-.1-.62-.19-1.2-.02-1.64h6.76Z"/>
  <polygon class="st0" points="119.4 62.51 104.5 104.43 109.77 104.43 124.57 62.51 119.4 62.51"/>
</svg>