<?xml version="1.0" encoding="UTF-8"?>
<svg id="Layer_1" xmlns="http://www.w3.org/2000/svg" version="1.1" viewBox="0 0 70.87 70.87">
  <!-- Generator: Adobe Illustrator 29.8.2, SVG Export Plug-In . SVG Version: 2.1.1 Build 3)  -->
  <defs>
    <style>
      .st0 {
        fill: #5e366d;
      }
    </style>
  </defs>
  <path class="st0" d="M56.74,3.01c5.8,1.24,9.83,5.27,11.07,11.08-.11,1.25.16,2.7,0,3.91-.33,2.58-2.48,6.25-4.56,7.82v-4.73c0-2.44-4.43-6.68-6.77-5.31-.11.06-1.35,1.85-1.37,2.05-.19,1.83,1.81,6.03,1.63,7.81-.05.52-1.59,2.18-2.07,2.1l-1.78-1.83c.13-2.88,3.17-8.25.12-10.23-2.14-.75-6.36,2.44-6.36,4.43v5.7c-7.1-5.34-6.03-16.68,1.62-21.03,1.11-.63,3.36-1.62,4.57-1.78h3.91ZM58.25,6.38c-4.74-4.43-11.51,2.69-6.74,7.23,4.48,4.26,11.45-2.84,6.74-7.23Z"/>
  <path class="st0" d="M12.77,37.55l.52,3.6-3.49.45C5.41,23.08,21.88,6.3,40.46,9.85l-1.31,6.19-2.28-1.63v6.19l2.9.03,1.01,3.06-3.91.49v9.78h10.75l-.16-3.59,3.7,1.35.05,2.24h6.51l-.3-2.26,3.56-1c3.26,17.28-11.73,33.46-29.16,30.66l-.79-6.21,2.6,1.63v-5.54l-2.93.33-.33-3.59,3.28-.51c.16-2.16-.28-4.73-.03-6.83.15-1.22,1-2.5.96-3.87-.04-1.11-.82-2.18-.95-3.28-.17-1.41.35-8.98.01-9.3l-7.78-1.26c-1.54,3.48-3.2,7.14-2.97,11.04l2.93.16c-1.21.57-5.28,6.65-6.18,6.03l-.33-2.61h-6.51ZM33.62,14.41c-.57-.14-.65.24-.98.49-1.56,1.2-2.99,3.27-4.55,4.56,0,.69,4.75,1.36,5.53,1.14v-6.19ZM27.43,14.74c-1.6.09-2.94,1.3-4.35,1.93l-.2.67,1.79.97,2.76-3.57ZM19.29,33.97c.1-4.41,1.44-8.71,3.5-12.55l-3.02-2.04c-4.1,3.75-6.39,9.11-7,14.59h6.51ZM47.62,37.55h-10.75v10.1l7.43,1.25c1.99-3.41,3.2-7.41,3.32-11.35ZM57.71,37.55h-6.51c-.2,4.55-1.63,8.96-3.87,12.88l2.79,1.73c4.54-3.4,6.76-9.14,7.59-14.61ZM36.87,51.24v5.54c.57.14.65-.24.98-.49.58-.45,3.9-3.77,3.91-4.24l-4.89-.82ZM46.97,54.18l-1.63-.51-2.27,2.78c.7.13,4.45-1.56,3.91-2.27Z"/>
  <path class="st0" d="M30.36,65.25l-8.3-11.4c-.23,0-2.46,3.08-2.93,3.58-.9.99-4.91,4.53-5.21,5.22-.67,1.58.42,3.54.15,5.21-.78-.49-1.62-2.69-2.28-3.11-.75-.47-1.54.39-2.27.03-1.2-.6-.18-1.89-.64-2.3-1.06-.64-2.3-.79-3.45-1.14-.46-.14-.58.2-.48-.66,1.21-.1,4.21-.18,5.04-.99.56-.55,1.51-3.17,2.07-4.12.52-.88,3.99-5.88,3.64-6.3l-12.7-4.24,18.63-3.27c1.78-2.21,6.64-9.56,10.02-6.99,3.17,2.41-2.72,8.86-3.61,11.4l2.3,19.07Z"/>
  <path class="st0" d="M58.69,28.1v-7.17c1.8.2,1.48,4.63,1.32,6.05-.11.96-.27,1.25-1.32,1.12Z"/>
  <polygon class="st0" points="50.88 20.93 50.88 28.43 49.87 27.63 49.9 21.75 50.88 20.93"/>
</svg>