<?xml version="1.0" encoding="UTF-8"?>
<svg id="Layer_1" xmlns="http://www.w3.org/2000/svg" version="1.1" viewBox="0 0 70.87 70.87">
  <!-- Generator: Adobe Illustrator 29.8.2, SVG Export Plug-In . SVG Version: 2.1.1 Build 3)  -->
  <defs>
    <style>
      .st0 {
        fill: #5e366d;
      }
    </style>
  </defs>
  <path class="st0" d="M61.24,5.41c2.2.52,3.8,2.11,4.22,4.34v47.39c-.58,2.98-3.1,4.64-6.08,4.36-.52,2.18-2.3,3.74-4.53,3.97H16.02c-2.23-.23-4.01-1.79-4.53-3.97-3.09.3-5.83-1.56-6.09-4.76V10.04c.23-2.36,1.97-4.1,4.23-4.63h51.61ZM63.47,13.38v-3.46c0-1.09-1.74-2.62-2.87-2.53H10.39c-1.18-.16-2.99,1.4-2.99,2.53v3.46h56.07ZM63.47,15.38H7.4v41.58c0,.19.4,1.03.54,1.22.79,1.14,2.14,1.4,3.45,1.3V24.94c0-.08.16-.71.2-.86.67-2.56,3.23-3.91,5.77-3.67.23-2.17,2.13-3.57,4.24-2.74,1.32.52,1.58,1.52,1.96,2.76h3.91c.14-4,5.78-3.98,5.98,0h3.92c.43-3.98,5.74-4,6.12,0l3.91-.02c.43-3.97,5.7-3.97,6.13,0,2.54-.25,5.1,1.12,5.77,3.67.04.15.2.78.2.86v34.54c1.28.11,2.68-.19,3.45-1.3.14-.2.54-1.04.54-1.22V15.38ZM30.45,19.42c-.36,0-.77.22-.91.56s-.16,2.29-.06,2.7c.23,1.04,1.84,1.07,1.97-.44.08-.91.25-2.79-1-2.82ZM40.42,19.42c-1.25.03-1.08,1.92-1,2.82.14,1.51,1.74,1.48,1.97.44.09-.41.08-2.35-.06-2.7s-.55-.57-.91-.56ZM20.03,19.51c-.9.27-.84,3.07-.37,3.61.32.37,1.01.38,1.39.11.63-.45.94-4.3-1.02-3.71ZM50.06,19.51c-.9.27-.84,3.07-.37,3.61.32.37,1.01.38,1.39.11.63-.45.94-4.3-1.02-3.71ZM13.38,25.05c-.1.73.07,1.65,0,2.4h44.1v-2.4c0-.11-.29-.88-.37-1.03-.69-1.34-2.12-1.75-3.54-1.61-.32.85-.39,1.65-1.14,2.28-2,1.69-4.85.31-5.02-2.21l-4-.07c-.21,4.01-5.67,3.98-6.05,0h-3.92c-.21,4-5.83,3.99-5.98,0h-3.91c-.36,1.28-.73,2.35-2.11,2.84-2.03.72-3.91-.77-4.09-2.82-1.78-.34-3.72.75-3.97,2.62ZM57.49,29.45H13.38v31.38c0,.99,1.34,2.45,2.37,2.56l38.98.08c1.17-.04,2.76-1.48,2.76-2.64v-31.38Z"/>
  <path class="st0" d="M40.98,39.39l7.66,1.2c5.24,3.12-2.3,6.94-4.14,9.58l1.26,7.38c.04,1.87-1.55,3.26-3.41,2.82l-6.95-3.56-6.79,3.53c-1.94.47-3.4-.76-3.51-2.68l1.27-7.49c-.07-.37-4.48-4.26-5.14-5.05-1.44-1.74-.92-3.78,1.17-4.58l7.48-1.14,3.33-6.81c1.08-1.5,3.25-1.52,4.37-.07l3.38,6.88ZM35.29,33.46c-.25.04-.33.18-.46.37-1.31,1.81-2.1,4.93-3.35,6.85-.51.79-1.01.69-1.86.84-2.24.39-4.52.56-6.75.99-.36.17-.51.42-.42.82.12.55,2.01,2.06,2.5,2.55s3.3,3.17,3.4,3.52c.1.32.06.66.04.99-.17,2.33-1.03,4.94-1.27,7.3.02.66.54.93,1.13.65,2.11-.83,4.67-2.91,6.72-3.6.36-.12.66-.1,1.02.03,2.07.74,4.52,2.71,6.63,3.57.6.28,1.11,0,1.13-.65-.25-2.37-1.09-4.96-1.27-7.3-.02-.33-.06-.67.04-.99.11-.35,3.02-3.14,3.52-3.63.47-.46,2.21-1.84,2.36-2.34.1-.31.02-.53-.18-.77l-8.4-1.46c-.18-.14-.31-.32-.43-.51-1.3-1.98-2.1-4.87-3.39-6.93-.16-.24-.43-.34-.72-.29Z"/>
  <path class="st0" d="M31.18,9.42h8.29c1.26.16,1.3,1.66.12,1.96h-8.31c-1.09-.27-1.15-1.58-.1-1.96Z"/>
  <path class="st0" d="M16.16,11.12c-.91.99-2.44-.54-1.45-1.45s2.32.5,1.45,1.45Z"/>
  <path class="st0" d="M11.24,9.42c1.26-.24,1.58,1.63.53,1.95-1.41.43-1.9-1.69-.53-1.95Z"/>
  <path class="st0" d="M19.22,9.42c1.56-.32,1.62,2.5-.21,1.92-.91-.29-.67-1.74.21-1.92Z"/>
</svg>