<?xml version="1.0" encoding="UTF-8"?>
<svg id="Layer_1" xmlns="http://www.w3.org/2000/svg" version="1.1" viewBox="0 0 70.87 70.87">
  <!-- Generator: Adobe Illustrator 29.8.2, SVG Export Plug-In . SVG Version: 2.1.1 Build 3)  -->
  <defs>
    <style>
      .st0 {
        fill: #5e366d;
      }
    </style>
  </defs>
  <path class="st0" d="M58.93,27.67c-.15.17-1.2-.76-1.4-.89-3.67-2.31-6.78-1.78-10.06.88-4.68-3.8-10.86-3.85-15.53,0-.22.04-1.62-1.06-1.97-1.26-2.75-1.56-4.75-1.38-7.48.08-.71.38-1.38,1.03-2.14,1.2v-2.43c0-1.14,1.52-4.15,2.18-5.17,5.48-8.51,19.16-10.47,27.7-5.81,3.53,1.93,8.71,6.76,8.71,11.11v2.3Z"/>
  <path class="st0" d="M33.34,47.49h26.97c.1,0,.61.23.74.31,1.91,1.07,1.45,3.98-.75,4.28l-40.81.02c-2.5-.23-3.91-3.77-4.98-5.78-1.84-3.45-3.42-7.05-5.24-10.51-.51-.96-2.45-3.9-2.55-4.67-.34-2.52,2.41-3.66,4.06-1.83,1.6,1.79,2.34,4.93,3.76,6.87l16.9.03c.75-.04,1.91,1.26,1.91,1.89v9.38ZM29.79,39.62h-13.65c.57,1.57,1.4,3.31,2.26,4.77.36.61,1.89,3.11,2.53,3.11h8.86v-7.87Z"/>
  <path class="st0" d="M14.9,57.6c-.85-.18-.75-2.31-.58-2.95.13-.52.63-.68,1.11-.73h47.12c.29-.01,1.03.11,1.21.29.49.49.41,3.38-.3,3.38h-2.95c.28,1.14,3.61,4.69,3.68,5.46.04.49-2.01,1.8-2.46,1.87-.29.04-.49-.12-.69-.31-1.73-1.63-3.3-4.52-4.99-6.3-.24-.25-.53-.62-.88-.7H21.81s-.57,6.57-.57,6.57c-.18.57-.53.71-1.08.76-.47.04-2.17.11-2.35-.3l-.09-7.06c-.82-.12-2.07.16-2.82,0Z"/>
  <path class="st0" d="M40.95,45.79h-2.62v-18.83c0-.42.82-.85,1.25-.86.47-.01,1.38.38,1.38.86v18.83Z"/>
  <path class="st0" d="M40.95,10.61h-2.62v-3.74c0-.41.82-.99,1.24-.99.49,0,1.38.49,1.38.99v3.74Z"/>
</svg>