<?xml version="1.0" encoding="UTF-8"?>
<svg id="Layer_1" xmlns="http://www.w3.org/2000/svg" version="1.1" viewBox="0 0 47.89 70.28">
  <!-- Generator: Adobe Illustrator 29.8.2, SVG Export Plug-In . SVG Version: 2.1.1 Build 3)  -->
  <defs>
    <style>
      .st0 {
        fill: #5e366d;
      }
    </style>
  </defs>
  <path class="st0" d="M15.43,33.77l16.79-.03c.74.04,1.51.72,1.85,1.34.75,1.38.15,4.34.06,5.96-.44,7.83-.84,15.7-1.54,23.5-.39,1.02-1.2,1.75-2.32,1.85-4.06.36-8.65-.28-12.77,0-2.36-.44-2.36-2.42-2.51-4.36-.66-8.49-.85-17.05-1.6-25.53.14-1.21.82-2.41,2.05-2.73Z"/>
  <path class="st0" d="M42.28,26.63c1.47.17,2.74,1.34,2.65,2.89-.04.59-1.02,4.69-1.26,5.12-1.29,2.25-5.11,1.22-7.26,1.43l-.14-.1c-.38-2.54-2.12-4.02-4.65-4.18-5.1-.33-10.56.25-15.7.02-2.33.22-3.99,1.86-4.31,4.16l-.14.1c-2.33-.21-6.5.97-7.47-1.95-.3-.89-.9-3.47-1.01-4.39-.18-1.54.86-2.87,2.42-2.98-.55-2.42-.23-4.95.89-7.14.19-.36,1.14-1.66,1.17-1.78.05-.19-.23-1.02-.23-1.45,0-3.12,4.06-4.46,5.9-1.96,2.1,2.86-1.12,6.48-4.24,4.85-.39,0-1.19,1.69-1.34,2.09-.66,1.73-.66,3.47-.31,5.28h35.04Z"/>
  <path class="st0" d="M35.35,24.79H12.52v-2.15c0-2.09,2.54-3.86,4.47-3.99,4.63-.32,9.66.23,14.33.04,1.71.1,4.02,2.23,4.02,3.96v2.15Z"/>
  <path class="st0" d="M23.04,3.83c8.38-1.06,10.03,11.36,2.04,12.72-8.68,1.48-10.39-11.66-2.04-12.72Z"/>
</svg>