<?xml version="1.0" encoding="UTF-8"?>
<svg id="Layer_1" xmlns="http://www.w3.org/2000/svg" version="1.1" viewBox="0 0 79.37 70.87">
  <!-- Generator: Adobe Illustrator 29.8.2, SVG Export Plug-In . SVG Version: 2.1.1 Build 3)  -->
  <defs>
    <style>
      .st0 {
        fill: #5e366d;
      }
    </style>
  </defs>
  <path class="st0" d="M5.13,36.29c-.03-.05-.39-.12-.54-.24-1.49-1.23-1.4-2.08-.99-3.82,1.73-7.44,4.78-14.92,6.6-22.37,1.32-3.43,4.4-1.81,7.03-1.07,19.07,5.4,37.97,11.47,57.02,16.96,1.07.47,1.81,1.58,1.78,2.77-.05,2.32-2.17,6.16-2.42,8.66l-.13,24.01c-.31,1-1.46,1.84-2.49,1.91l-63.81-.1c-1.14-.42-1.82-1.34-2.01-2.53l-.02-24.19ZM55.75,25.15c-.69-.56-.12-1.88.09-2.57L12.9,9.85l-.69.74-6.77,23.18.74.69,42.34,12.44c.42-.14.18-2.14,1.69-1.81s.28,2.39.39,2.53l15.97,4.55.29-.14c2.13-7.24,4.52-14.45,6.53-21.73.19-.7.49-1.45.48-2.17-.13-.44-1.29-.71-1.72-.85-4.69-1.54-9.56-2.63-14.24-4.22-.11.91-.9,3.11-2.16,2.08ZM7.28,36.98v23.5s.34.34.43.42l44.73.07c-.27-1.46.55-3.09,2.04-1.81l.09,1.81h16.4c.15,0,.5-.35.5-.5v-16.12l-2.41,8.03c-.65,1.45-1.96,2.23-3.56,1.85l-10.93-3.2v4.62c0,.4-1.42.97-1.89.17-.57-.97-.02-5.21-.25-5.49l-10.03-2.96c-6.71-.43-13.92.46-20.56-.03-.26-.02-.52-.02-.74-.18-.17-.21-.03-.44-.03-.61v-2.2h10.93l-7.77-2.38-3.16-.03-.14-.93-2.04-.61-1.35,1.35.51,4.64c-.15.16-.7,1.13-.96.94l-1.42-3.55c-.16-.11-1.27.97-1.34,1.14-.33.77.53,1.64-.57,1.99-.36-.22-.38-.9-.58-1.13-.15-.17-.42-.15-.57-.28-.2-.17-.17-.49-.35-.64-.19-.16-1.21-.3-1.12-.7.15-.67.94-.35,1.34-.35.96-.02,1.25-.69,1.92-1.22-.12-.26-2.91-1.3-3.41-1.56-.17-.09-.34,0-.28-.28.3-.3.62-.59,1.06-.65,1.27-.18,3.26.57,4.4.43.32-.04.83-.33.79-.71l-9.66-2.84Z"/>
  <path class="st0" d="M11.35,24.21l36.76,10.92c.2.32-.28,2.02-.47,2.38-.09.18-.16.32-.39.33L10.62,26.9c-.2-.32.46-2.6.73-2.69Z"/>
  <path class="st0" d="M9.71,29.32l36.81,10.8c.17.06.23.14.24.32,0,.29-.61,2.9-1.28,2.44l-36.43-10.88c-.26-.42.58-2.12.66-2.69Z"/>
  <path class="st0" d="M50.58,27.59l-26.44-7.68-.18-.11c-.13-.19.43-2.38.57-2.56.08-.1.16-.14.29-.15l26.24,7.7.23.21-.71,2.59Z"/>
  <path class="st0" d="M23.28,22.23l26.4,7.79c.18.25-.49,2.6-.74,2.69l-26.22-7.69c-.19-.11-.37-.18-.36-.44,0-.29.62-2.26.92-2.36Z"/>
  <path class="st0" d="M20.53,18.56l-.78,4.55-.9.81-.33-.23-.45-3.74c-.07-.06-1.5.71-1.56.78-.43.48.09,1.75-1.13,1.92-.07-.31-.06-1.34-.17-1.53-.05-.08-.32-.11-.41-.23-.2-.28-.06-.58-.16-.77-.07-.12-.98-.54-.96-.95.61-.85,1.47.22,2.04.18.14-.01,1.51-.8,1.51-.89l-3.12-2.77,1.33-.39c.94.22,3.51,1.79,4.28,1.8.57,0,2.59-1.95,3.03-.45.31,1.07-1.6,1.38-2.21,1.92Z"/>
  <path class="st0" d="M51.77,36.59c.65-.61,1.88-.17,1.82.88-.03.52-1.14,4.26-1.4,4.72-.61,1.1-2.1.6-2.01-.58.45-.89,1.03-4.5,1.59-5.02Z"/>
  <path class="st0" d="M55.81,27.79c.32.26.34.77.31,1.15-.06.66-1.03,3.87-1.34,4.49-.53,1.08-2.04.63-2.01-.47,0-.44,1.3-4.68,1.54-4.97.33-.42,1.07-.54,1.5-.19Z"/>
  <path class="st0" d="M48.89,49.76v2.63l-.21.21H10.27c-.15-.63-.45-2.83.35-2.98l38.27.14Z"/>
  <path class="st0" d="M48.89,57.85l-.77.15-37.67-.11c-.61-.29-.26-2.23-.18-2.88h38.41l.21.21v2.63Z"/>
</svg>