<?xml version="1.0" encoding="UTF-8"?>
<svg id="Layer_1" xmlns="http://www.w3.org/2000/svg" version="1.1" viewBox="0 0 64.56 70.28">
  <!-- Generator: Adobe Illustrator 29.8.2, SVG Export Plug-In . SVG Version: 2.1.1 Build 3)  -->
  <defs>
    <style>
      .st0 {
        fill: #5e366d;
      }
    </style>
  </defs>
  <path class="st0" d="M3.31,42.46c.19-1.97,1.59-3.81,3.4-4.56.22-.09.77-.18.86-.3l3.9-10.07c.75-1.88,2.38-3.17,4.4-3.42l6.39-.02c.47-.98.96-2.05,1.59-2.94.28-.4.63-.92,1.14-.96,1.3-.12,2.84.06,4.16.04,1.22.97,1.72,2.58,2.51,3.86h6.14c2.05.21,3.48,1.4,4.32,3.22l3.91,10.39c1.64.32,3.11,1.67,3.69,3.23.09.25.35,1.1.35,1.32v13.5h-3.91v3.29c0,.18-.21.95-.29,1.16-1.02,2.94-4.54,2.78-5.4-.18-.4-1.38-.21-2.85-.25-4.27H13.16v3.37c0,.41-.39,1.4-.61,1.78-1.21,2.06-3.79,1.86-4.83-.24-.72-1.46-.43-3.32-.49-4.9h-3.91v-13.29ZM11.67,37.28h30.48l.08-.15c-1.18-2.91-2.12-5.91-3.38-8.78-.37-.52-.86-.93-1.54-.92-7.1.05-14.21-.09-21.3.07-.7.22-1.06.77-1.35,1.4l-3.09,8.21.1.17ZM12.2,41.28c-4.08.55-3.48,7.22.91,6.78s3.8-7.42-.91-6.78ZM40.51,41.28c-3.79.46-3.71,6.48.27,6.78,4.76.36,4.82-7.41-.27-6.78Z"/>
  <path class="st0" d="M27.2,14.69l.04-.15c.66-.18,1.27-.72,1.95-.79,2.15-.22,4.39,1.4,6.42,1.8,5.89-2.35,11.81-5.06,17.88-6.88,1.83-.55,2.83-.89,4.79-.62.99.14,3.56.43,2.83,2.01-.43.91-3.12,2.03-4.08,2.43-3.83,1.59-8.5,3.3-12.47,4.47-3.95,1.16-7.85,1.48-11.95,1.49l-5.41-3.76Z"/>
  <path class="st0" d="M46.17,10.13l-8.21,3.32-.5-.44-8.23-3.28c.76-.39,1.62-.94,2.42-1.2,1.41-.45,3.7-.04,5.2.16,3.11.4,6.21.99,9.31,1.44Z"/>
  <rect class="st0" x="32.34" y="20.84" width="23.1" height="1.23"/>
</svg>