<svg width="164" height="48" viewBox="0 0 164 48" version="1.1" xmlns="http://www.w3.org/2000/svg"><g id="Page-1" stroke="none" stroke-width="1" fill="none" fill-rule="evenodd"><g id="logo"><g id="marchio"><path id="Fill-1" fill="#E3032E" d="M0 47.74h47.742V0H0z"/><path d="M13.924 29.838c0-8.789 7.125-15.915 15.914-15.915 8.79 0 15.913 7.126 15.913 15.915 0 8.788-7.123 15.915-15.913 15.915-8.789 0-15.914-7.127-15.914-15.915" id="Fill-2" fill="#FFF"/><path d="M27.849 28.097V24.12h1.989c1.444 0 2.238.846 2.238 1.988 0 1.173-.768 1.99-2.238 1.99h-1.989zm-7.957 11.687h9.448v-3.978h-1.491v-4.103h2.223l3.942 8.08h6.765v-3.977h-1.394L36.8 30.584c1.635-.762 2.779-2.724 2.779-4.746 0-1.201-.327-2.637-1.418-3.81-1.552-1.668-3.514-2.136-8.745-2.136h-9.524v3.978h1.492v11.936h-1.492v3.978z" id="Fill-4" fill="#000"/></g><path d="M70.249 13.157c0 1.162-.77 1.97-2.25 1.97h-2v-3.94h2c1.45 0 2.25.838 2.25 1.97zm7.544-.267c0-1.19-.33-2.612-1.424-3.773C74.807 7.464 72.834 7 67.575 7H58v3.94h1.5v11.823H58v3.941h9.5v-3.941H66v-4.064h2.233l3.966 8.005h6.8v-3.941h-1.4L75 17.59c1.643-.755 2.794-2.699 2.794-4.701zm11.335 5.932c0 2.95-.352 4.532-1.93 4.532-1.581 0-1.931-1.582-1.931-4.532s.35-4.533 1.93-4.533 1.93 1.583 1.93 4.533zm6.471 0c0-3.717-2.588-8.176-8.4-8.176-5.811 0-8.399 4.459-8.399 8.176 0 3.716 2.588 8.178 8.4 8.178s8.4-4.462 8.4-8.178zm6.376-3.588a.978.978 0 0 1-.315-.695c0-.603.498-.975 1.31-.975 1.18 0 2.065.534 2.59 1.648l.139.26h3.84V10.94h-4v.976c-1.048-.766-2.437-1.172-3.957-1.172-3.329 0-5.583 1.868-5.583 4.654 0 1.254.499 2.298 1.626 3.297 1.913 1.693 5.058 2.135 6.21 3.157.342.301.446.533.446.835 0 .627-.55 1.022-1.416 1.022-1.334 0-2.316-.493-2.867-1.931h-4v4.926h4v-1.046c1.207.79 2.946 1.242 4.415 1.242 3.328 0 5.587-2.053 5.587-4.77 0-1.532-.61-2.808-1.29-3.413-2.07-1.834-5.923-2.762-6.735-3.483zm8.825 11.47h13.6v-4.926h-4v1.182h-3.402V20.4h3.001v-3.153h-3.001v-2.562h3.402v1.183h4V10.94h-13.6v3.942h1.198v7.88H110.8v3.942zm26.4-9.458h2.399V10.94H125.6v6.306h2.4v-2.562h1.998v8.079h-1.199v3.941h7.599v-3.941h-1.2v-8.079h2.001v2.562zm15.2 0h2.4V10.94h-14v6.306h2.399v-2.562h2v8.079H144v3.941h7.6v-3.941h-1.2v-8.079h2v2.562zm3.598 9.458h7.601v-3.941h-1.2v-7.881h1.2V10.94H156v3.942h1.2v7.88H156v3.942zm-84.797 21h9.798v-3.941H79V31.94h1.998V28H71.2l-2.5 7.882L65.932 28H57v3.942l2-.002v11.823h-2v3.941h7.4v-3.941h-2V31.94l5.1 15.764H69l4.2-15.764v11.823h-2v3.941zm19.598-7.288H88L89.4 36l1.4 4.416zm0 7.348h7.602v-3.942h-1.2L94.4 35.744h1.2V32H84.94v3.744h1.2l-2.941 8.078H82v3.942h6v-3.448h-1.2l.6-1.984h4l.6 1.984h-1.2v3.448zm18.6-11.186c0 .929-.617 1.576-1.8 1.576H106V35l1.599.001c1.16 0 1.8.67 1.8 1.577zm2.031 11.186h5.37v-3.942h-1.2l-2-3.35c1.314-.602 2.235-2.157 2.235-3.76 0-.952-.264-2.088-1.14-3.018-1.249-1.323-2.828-1.694-7.034-1.694H100v3.942h1.2v7.88H100v3.942h7.6V44.02h-1.2v-2.661h1.786l3.244 6.405zm6.57 0h7.601v-3.942h-1.2v-7.88h1.2V32H118v3.942h1.2v7.88H118v3.942zm26.199-11.822h1.2V32h-6.2v3.744h1.2v4.532L135 32h-7v3.942h1.2v7.88H128v3.942h6.2V44.02H133v-5.517l6.136 9.36h5.063V35.941zm11.662 3.591c0 2.95-.35 4.532-1.93 4.532S152 42.482 152 39.533c0-2.95.351-4.533 1.93-4.533 1.58 0 1.93 1.582 1.93 4.533zm6.94-.357c0-3.717-2.588-8.176-8.4-8.176-5.813 0-8.401 4.459-8.401 8.176 0 3.716 2.588 8.178 8.4 8.178 5.813 0 8.4-4.462 8.4-8.178z" fill="#000"/></g></g></svg>