<?xml version="1.0" encoding="UTF-8"?>
<svg id="Layer_1" data-name="Layer 1" xmlns="http://www.w3.org/2000/svg" viewBox="0 0 304.67 108">
  <defs>
    <style>
      .cls-1, .cls-2 {
        fill: #fff;
      }

      .cls-2 {
        font-family: RichmondText-Medium, 'Richmond Text';
        font-size: 14.89px;
        font-weight: 500;
      }
    </style>
  </defs>
  <text class="cls-2" transform="translate(94.74 94.83)"><tspan x="0" y="0">Travel &amp; Tourism</tspan></text>
  <g>
    <path class="cls-1" d="M138.14,55.59l.97.36c-1.93,6.82-7.31,10.99-14.19,10.99-9,0-16-6.58-16-15.7s6.95-15.58,15.94-15.58,14.62,6.22,14.62,15.58h-24.52c.24,6.76,5.07,12.38,12.2,12.38,4.95,0,8.88-2.78,10.99-8.03M114.95,49.15h18.96c-.24-8.94-3.32-12.4-9.06-12.4s-9.66,4-9.9,12.4"/>
    <path class="cls-1" d="M71.15,55.59l.97.36c-1.93,6.82-7.31,10.99-14.19,10.99-9,0-16-6.58-16-15.7s6.95-15.58,15.94-15.58,14.62,6.22,14.62,15.58h-24.52c.24,6.76,5.07,12.38,12.2,12.38,4.95,0,8.88-2.78,10.99-8.03M47.96,49.15h18.96c-.24-8.94-3.32-12.4-9.06-12.4s-9.66,4-9.9,12.4"/>
    <path class="cls-1" d="M178.39,65.01v1.21h-14.15v-1.21l4.47-.99v-17.25c0-5.07-2.29-7.85-6.64-7.85-5.5,0-8.64,4.47-8.64,10.57v14.53l4.47.99v1.21h-14.15v-1.21l4-.99v-25.37l-4-1.06v-1.21l9.68-.89v9.16c1.33-5.55,5.07-9,11.05-9s9.9,3.68,9.9,10.99v17.37l4,.99Z"/>
    <path class="cls-1" d="M218.2,65.01v1.21h-9.68v-8.7c-1.63,5.8-6.52,9.42-12.5,9.42-8.03,0-13.95-6.04-13.95-15.64s5.92-15.64,13.95-15.64c5.98,0,10.87,3.62,12.5,9.36v-14.7l-4.06-1.18v-1.09l9.68-.89v36.85l4.06.99ZM208.52,51.37v-.24c0-7.67-4.71-12.68-10.27-12.68s-10.14,5.25-10.14,12.86,4.35,12.86,10.14,12.86,10.27-5.13,10.27-12.8"/>
    <polygon class="cls-1" points="37.69 58.94 33.75 64.12 23.02 64.12 23.01 27.1 13.16 28.06 13.16 29.27 17.16 30.33 17.16 64.02 13.16 65.01 13.16 66.22 38.96 66.22 38.96 58.94 37.69 58.94"/>
    <path class="cls-1" d="M94.85,58.61h-9.72c-1.99,0-3.2-.9-3.2-2.48,0-1.02.54-1.99,1.27-2.9,1.93,1.03,4.29,1.63,6.94,1.63,7.31,0,12.26-4.47,12.26-9.61,0-2.23-.91-4.31-2.5-5.96l6.26-7.87-.26-.3-9.79,5.72c-.64-.27-1.26-.55-1.93-.72-.66-.16-1.33-.28-2-.35-.67-.08-1.35-.11-2.03-.11-7.25,0-12.26,4.35-12.26,9.6,0,2.9,1.57,5.5,4.17,7.31-2.11,1.39-3.81,3.14-3.81,5.56,0,2.72,1.63,4.47,4.04,5.25-4.47.78-6.94,2.9-6.94,6.28,0,4.65,4.53,7.13,13.59,7.13h.12c10.09,0,16.61-3.93,16.61-10.27,0-5.25-3.44-7.91-10.81-7.91M90.13,36.93c4.59,0,6.76,3.5,6.76,8.33s-2.17,8.27-6.76,8.27-6.7-3.56-6.7-8.27,2.17-8.33,6.7-8.33M89.29,75.58h-.12c-6.4,0-9.91-2.48-9.91-6.28,0-4.23,3.62-5.43,8.4-5.43h6.46c4.53,0,6.89,1.57,6.89,4.89,0,3.99-4.53,6.82-11.72,6.82"/>
    <path class="cls-1" d="M233.45,56.98c0,5.07,4.1,9.17,9.17,9.17h28.8v-18.19h-19.74v-19.86h-18.23v28.88Z"/>
    <polygon class="cls-1" points="251.67 9.27 234.65 26.38 251.67 26.38 251.67 9.27"/>
    <polygon class="cls-1" points="290.37 47.93 273.14 47.93 273.14 65.08 290.37 47.93"/>
    <polygon class="cls-1" points="291.51 8.09 253.41 8.09 253.41 26.38 253.41 26.43 273.16 26.43 273.16 46.21 291.51 46.21 291.51 8.09"/>
  </g>
</svg>